# xmcd
#
# Track frame offsets: 
#        150
#        17453
#        35057
#        46823
#        63423
#        75816
#        90494
#        106718
#        122328
#        139826
#        157394
#        173411
#        195862
#        203784
#
# Disc length: 3082 seconds
#
# Revision: 1
# Processed by: cddbd v1.5.2PL0 Copyright (c) Steve Scherf et al.
# Submitted via: ExactAudioCopy v0.95b4
#
DISCID=9f0c080e
DTITLE=Mick est tout seul - Les Chansons perdues
DYEAR=2007
DGENRE=Chanson
TTITLE0=Modi
TTITLE1=La cle des champs
TTITLE2=J'te jure
TTITLE3=Les hommes se cachent pour pleurer
TTITLE4=Encore
TTITLE5=Si tu tombes
TTITLE6=L'invitation au mal
TTITLE7=Ou sont passes les reves ?
TTITLE8=Des filles et puis des mecs
TTITLE9=Allez !
TTITLE10=Des oiseaux dans mon ventre
TTITLE11=Au bois d'Aline
TTITLE12=Pianotom
TTITLE13=L'ocean
EXTD=
EXTT0=
EXTT1=
EXTT2=
EXTT3=
EXTT4=
EXTT5=
EXTT6=
EXTT7=
EXTT8=
EXTT9=
EXTT10=
EXTT11=
EXTT12=
EXTT13=
PLAYORDER=
